<svg width="55" height="42" viewBox="0 0 55 42" fill="none" xmlns="http://www.w3.org/2000/svg">
<g clip-path="url(#clip0_1_37)">
<path d="M46.5903 3.51743C42.9768 1.85055 39.162 0.667998 35.2434 0C34.7072 0.965827 34.222 1.95953 33.7899 2.97696C29.6158 2.34322 25.3711 2.34322 21.1971 2.97696C20.7647 1.95964 20.2795 0.965943 19.7435 0C15.8225 0.673639 12.0052 1.85899 8.38796 3.52615C1.2069 14.231 -0.739777 24.67 0.233559 34.9608C4.43897 38.0914 9.14602 40.4723 14.1501 42C15.2769 40.4731 16.2739 38.8532 17.1307 37.1575C15.5034 36.5452 13.9328 35.7897 12.437 34.8997C12.8307 34.6121 13.2157 34.3157 13.5877 34.028C17.9401 36.0903 22.6904 37.1595 27.5 37.1595C32.3095 37.1595 37.0599 36.0903 41.4122 34.028C41.7885 34.3375 42.1735 34.6339 42.5629 34.8997C41.0642 35.7911 39.4907 36.5481 37.8606 37.1619C38.7163 38.8568 39.7134 40.4753 40.8412 42C45.8495 40.4784 50.5602 38.0987 54.7664 34.9651C55.9084 23.0311 52.8154 12.688 46.5903 3.51743ZM18.3636 28.632C15.6512 28.632 13.4104 26.1519 13.4104 23.1009C13.4104 20.0498 15.5733 17.5479 18.3549 17.5479C21.1365 17.5479 23.36 20.0498 23.3124 23.1009C23.2649 26.1519 21.1278 28.632 18.3636 28.632ZM36.6363 28.632C33.9197 28.632 31.6875 26.1519 31.6875 23.1009C31.6875 20.0498 33.8504 17.5479 36.6363 17.5479C39.4222 17.5479 41.6285 20.0498 41.5809 23.1009C41.5333 26.1519 39.4006 28.632 36.6363 28.632Z" fill="white"/>
</g>
<defs>
<clipPath id="clip0_1_37">
<rect width="55" height="42" fill="white"/>
</clipPath>
</defs>
</svg>
